<svg width="500" height="500" viewBox="0 0 500 500" fill="none" xmlns="http://www.w3.org/2000/svg">
<g clip-path="url(#clip0_178_5)">
<path d="M500 54.7041L166.667 164.114L500 273.522V328.228L0 164.114L500 0V54.7041Z" fill="#0023D2"/>
<path d="M500 335.886L0 500V445.295L333.333 335.886L0 226.477V171.772L500 335.886Z" fill="#00CC11"/>
<path d="M50 315.369C61.8245 320.987 70 333.038 70 347C70 366.33 54.33 382 35 382C15.67 382 0 366.33 0 347C0 333.038 8.17547 320.987 20 315.369V227H50V315.369Z" fill="#00CC11"/>
<path d="M450 180.631C438.175 175.013 430 162.962 430 149C430 129.67 445.67 114 465 114C484.33 114 500 129.67 500 149C500 162.962 491.825 175.013 480 180.631V269H450V180.631Z" fill="#0023D2"/>
</g>
<defs>
<clipPath id="clip0_178_5">
<rect width="500" height="500" fill="white"/>
</clipPath>
</defs>
</svg>
